<?xml version="1.0" encoding="iso-8859-1"?>
<!-- Generator: Adobe Illustrator 19.0.0, SVG Export Plug-In . SVG Version: 6.00 Build 0)  -->
<svg xmlns="http://www.w3.org/2000/svg" xmlns:xlink="http://www.w3.org/1999/xlink" version="1.1" id="Capa_1" x="0px" y="0px" viewBox="0 0 512.001 512.001" style="enable-background:new 0 0 512.001 512.001;" xml:space="preserve" width="512" height="512">
<g>
	<path fill="white" d="M357.863,424.552c0.544,0.12,1.087,0.178,1.623,0.178c3.442,0,6.545-2.386,7.317-5.887   c2.875-13.04,14.672-22.504,28.05-22.504c4.142,0,7.5-3.357,7.5-7.5V122.667c0-4.143-3.358-7.5-7.5-7.5s-7.5,3.357-7.5,7.5v259.33   c-17.138,3.03-31.367,16.238-35.199,33.615C351.262,419.657,353.818,423.659,357.863,424.552z"/>
	<path fill="white" d="M432.743,91.806c-0.003-0.085-0.007-0.169-0.013-0.253c-0.022-0.319-0.056-0.636-0.118-0.947   c-0.001-0.004-0.001-0.009-0.002-0.013c-0.063-0.318-0.154-0.627-0.257-0.933c-0.026-0.078-0.054-0.155-0.083-0.232   c-0.108-0.289-0.229-0.572-0.372-0.846c-0.008-0.016-0.014-0.032-0.023-0.048c-0.152-0.286-0.329-0.558-0.518-0.823   c-0.048-0.068-0.098-0.134-0.149-0.201c-0.201-0.263-0.414-0.519-0.65-0.756L346,2.196c-0.237-0.237-0.494-0.45-0.757-0.652   c-0.065-0.05-0.13-0.098-0.197-0.146c-0.266-0.19-0.54-0.367-0.827-0.52c-0.013-0.007-0.028-0.012-0.041-0.02   c-0.276-0.145-0.562-0.266-0.853-0.375c-0.076-0.028-0.152-0.056-0.229-0.082c-0.306-0.104-0.617-0.194-0.936-0.258   c-0.002,0-0.004,0-0.005-0.001c-0.313-0.062-0.633-0.097-0.954-0.119c-0.084-0.006-0.167-0.01-0.251-0.012   C340.865,0.01,340.782,0,340.697,0H110.999C93.49,0,79.246,14.245,79.246,31.754v32.68c0,4.143,3.358,7.5,7.5,7.5   s7.5-3.357,7.5-7.5v-32.68c0-9.238,7.516-16.754,16.753-16.754h222.198v15.4H153.371c-4.142,0-7.5,3.357-7.5,7.5   c0,15.842-12.884,28.729-28.72,28.729c-4.142,0-7.5,3.357-7.5,7.5v314.71c0,4.143,3.358,7.5,7.5,7.5   c15.836,0,28.72,12.884,28.72,28.72c0,4.143,3.358,7.5,7.5,7.5h64.95c4.142,0,7.5-3.357,7.5-7.5s-3.358-7.5-7.5-7.5h-58.093   c-3.145-18.107-17.469-32.432-35.577-35.576V80.986c18.109-3.146,32.434-17.473,35.577-35.586h172.97v22.405   c0,17.509,14.245,31.753,31.753,31.753h52.805v331.655c0,9.237-7.516,16.753-16.753,16.753h-51.513c-4.142,0-7.5,3.357-7.5,7.5   s3.358,7.5,7.5,7.5h51.513c17.509,0,31.753-14.244,31.753-31.753V92.059C432.755,91.974,432.746,91.891,432.743,91.806z    M364.95,84.559c-9.238,0-16.753-7.516-16.753-16.753V37.978c0-0.026,0.004-0.051,0.004-0.077s-0.004-0.051-0.004-0.077V25.606   l58.952,58.952H364.95z"/>
	<path fill="white" d="M316.5,111.275c4.142,0,7.5-3.357,7.5-7.5s-3.358-7.5-7.5-7.5H195.502c-4.142,0-7.5,3.357-7.5,7.5s3.358,7.5,7.5,7.5H316.5   z"/>
	<path fill="white" d="M154.394,183.215c0,4.143,3.358,7.5,7.5,7.5h188.214c4.142,0,7.5-3.357,7.5-7.5s-3.358-7.5-7.5-7.5H161.894   C157.752,175.715,154.394,179.072,154.394,183.215z"/>
	<path fill="white" d="M161.894,238.983h188.214c4.142,0,7.5-3.357,7.5-7.5s-3.358-7.5-7.5-7.5H161.894c-4.142,0-7.5,3.357-7.5,7.5   S157.752,238.983,161.894,238.983z"/>
	<path fill="white" d="M161.894,287.253h188.214c4.142,0,7.5-3.357,7.5-7.5s-3.358-7.5-7.5-7.5H161.894c-4.142,0-7.5,3.357-7.5,7.5   S157.752,287.253,161.894,287.253z"/>
	<path fill="white" d="M161.894,335.521h48.338c4.142,0,7.5-3.357,7.5-7.5s-3.358-7.5-7.5-7.5h-48.338c-4.142,0-7.5,3.357-7.5,7.5   S157.752,335.521,161.894,335.521z"/>
	<path fill="white" d="M344.984,401.422l-0.862-7.838c-0.216-1.963,0.575-3.873,2.115-5.108l6.153-4.933c4.936-3.957,7.767-9.855,7.768-16.182   c0-6.327-2.831-12.226-7.768-16.185l-6.153-4.933c-1.541-1.235-2.331-3.145-2.115-5.107l0.862-7.838   c0.692-6.289-1.477-12.462-5.95-16.936s-10.646-6.643-16.936-5.951l-7.839,0.862c-1.969,0.217-3.872-0.574-5.107-2.115   l-4.932-6.152c-3.958-4.937-9.856-7.768-16.183-7.768s-12.226,2.831-16.183,7.768l-4.932,6.151   c-1.236,1.542-3.146,2.327-5.109,2.116l-7.838-0.862c-6.293-0.694-12.463,1.478-16.936,5.951   c-4.474,4.474-6.643,10.646-5.95,16.936l0.862,7.838c0.216,1.963-0.575,3.872-2.116,5.107l-6.153,4.933   c-4.937,3.959-7.767,9.857-7.767,16.185c0,6.326,2.832,12.225,7.768,16.182l6.152,4.933c1.541,1.235,2.332,3.146,2.116,5.108   l-0.862,7.838c-0.692,6.289,1.477,12.462,5.95,16.936c3.271,3.271,7.453,5.305,11.921,5.894v23.715H110.999   c-9.238,0-16.753-7.516-16.753-16.753V94.435c0-4.143-3.358-7.5-7.5-7.5s-7.5,3.357-7.5,7.5v336.779   c0,17.509,14.245,31.753,31.753,31.753h137.961V504.5c0,3.592,2.547,6.68,6.073,7.363c3.521,0.684,7.042-1.229,8.384-4.562   c5.889-14.622,15.093-23.352,24.623-23.352c9.523,0,18.724,8.729,24.613,23.352c1.16,2.88,3.942,4.699,6.953,4.699   c0.473,0,0.952-0.045,1.431-0.138c3.526-0.684,6.073-3.771,6.073-7.363v-80.251c4.471-0.589,8.652-2.621,11.924-5.892   C343.508,413.884,345.677,407.711,344.984,401.422z M263.961,479.398v-23.893c0-0.013,0.002-0.025,0.002-0.039   s-0.002-0.025-0.002-0.039v-31.816c1.149,0.314,2.187,0.985,2.96,1.949l4.933,6.152c2.326,2.9,5.324,5.066,8.683,6.366v31.808   C274.583,471.378,268.964,474.621,263.961,479.398z M295.537,469.887v-31.806c3.359-1.299,6.357-3.466,8.683-6.367l4.932-6.152   c0.773-0.964,1.81-1.636,2.958-1.95v55.784C307.107,474.619,301.489,471.376,295.537,469.887z M336.854,376.772   c-5.565,4.463-8.422,11.361-7.642,18.452l0.862,7.838c0.263,2.384-0.919,3.961-1.647,4.688s-2.302,1.906-4.688,1.647l-7.84-0.863   c-7.095-0.784-13.989,2.076-18.451,7.644l-4.932,6.152c-1.5,1.87-3.451,2.15-4.48,2.15h0c-1.029-0.001-2.98-0.28-4.479-2.15   l-4.933-6.152c-3.977-4.961-9.889-7.77-16.149-7.77c-0.764,0-1.533,0.041-2.304,0.126l-7.837,0.863   c-2.385,0.265-3.961-0.92-4.688-1.647s-1.91-2.305-1.647-4.688l0.862-7.838c0.78-7.091-2.077-13.989-7.643-18.452l-6.152-4.933   c-1.871-1.5-2.15-3.45-2.15-4.479s0.279-2.98,2.15-4.48l6.151-4.932c5.567-4.462,8.424-11.36,7.644-18.452l-0.862-7.838   c-0.263-2.384,0.919-3.961,1.647-4.688s2.304-1.913,4.688-1.647l7.837,0.862c7.089,0.782,13.989-2.076,18.453-7.643l4.932-6.152   c1.5-1.87,3.451-2.15,4.48-2.15s2.98,0.28,4.48,2.15l4.932,6.152c4.463,5.566,11.358,8.418,18.452,7.643l7.838-0.862   c2.383-0.267,3.96,0.92,4.688,1.647c0.728,0.728,1.91,2.305,1.647,4.688l-0.862,7.838c-0.78,7.092,2.077,13.989,7.643,18.451   l6.152,4.933c1.872,1.5,2.151,3.451,2.151,4.48s-0.28,2.979-2.15,4.479L336.854,376.772L336.854,376.772z"/>
	<path fill="white" d="M288.037,329.704c-20.764,0-37.656,16.893-37.656,37.656s16.893,37.656,37.656,37.656s37.656-16.893,37.656-37.656   S308.8,329.704,288.037,329.704z M288.037,390.017c-12.493,0-22.656-10.163-22.656-22.656s10.164-22.656,22.656-22.656   s22.656,10.163,22.656,22.656S300.529,390.017,288.037,390.017z"/>
</g>















</svg>
