<?xml version="1.0" encoding="iso-8859-1"?>
<!-- Generator: Adobe Illustrator 19.0.0, SVG Export Plug-In . SVG Version: 6.00 Build 0)  -->
<svg xmlns="http://www.w3.org/2000/svg" xmlns:xlink="http://www.w3.org/1999/xlink" version="1.1" id="Capa_1" x="0px" y="0px" viewBox="0 0 512 512" style="enable-background:new 0 0 512 512;" xml:space="preserve" width="512" height="512">
<g>
	<path fill="white" d="M404.258,232.045c4.143,0,7.5-3.358,7.5-7.5v-9.643c0-17.664-14.371-32.035-32.035-32.035h-17.88   c-17.664,0-32.035,14.371-32.035,32.035v9.643c0,4.142,3.357,7.5,7.5,7.5s7.5-3.358,7.5-7.5v-9.643   c0-9.393,7.642-17.035,17.035-17.035h17.88c9.394,0,17.035,7.642,17.035,17.035v9.643   C396.758,228.687,400.115,232.045,404.258,232.045z"/>
	<path fill="white" d="M230.024,214.902c0-9.393,7.642-17.035,17.035-17.035h17.881c9.394,0,17.035,7.642,17.035,17.035   c0,4.142,3.357,7.5,7.5,7.5s7.5-3.358,7.5-7.5c0-17.664-14.371-32.035-32.035-32.035H247.06c-17.664,0-32.035,14.371-32.035,32.035   c0,4.142,3.357,7.5,7.5,7.5S230.024,219.044,230.024,214.902z"/>
	<path fill="white" d="M174.692,232.045c4.143,0,7.5-3.358,7.5-7.5v-9.643c0-17.664-14.371-32.035-32.035-32.035h-17.88   c-17.664,0-32.035,14.371-32.035,32.035v9.643c0,4.142,3.357,7.5,7.5,7.5s7.5-3.358,7.5-7.5v-9.643   c0-9.393,7.642-17.035,17.035-17.035h17.88c9.394,0,17.035,7.642,17.035,17.035v9.643   C167.192,228.687,170.55,232.045,174.692,232.045z"/>
	<path fill="white" d="M507.257,108.417l-248.5-98.237c-1.771-0.7-3.742-0.7-5.514,0l-97.554,38.564c-3.853,1.522-5.74,5.88-4.218,9.732   s5.881,5.742,9.731,4.217L256,25.22l241,95.272v11.594H15v-11.594L133.134,73.79c3.853-1.522,5.74-5.88,4.218-9.732   c-1.522-3.852-5.88-5.74-9.731-4.217L4.743,108.417C1.881,109.548,0,112.314,0,115.391v24.194c0,4.142,3.357,7.5,7.5,7.5h17.091   v5.866c0,13.402,10.903,24.306,24.306,24.306h3.514v47.288c0,4.142,3.357,7.5,7.5,7.5s7.5-3.358,7.5-7.5v-47.212h377.18v47.212   c0,4.142,3.357,7.5,7.5,7.5s7.5-3.358,7.5-7.5v-47.288h3.514c13.402,0,24.306-10.903,24.306-24.306v-5.866H504.5   c4.143,0,7.5-3.358,7.5-7.5v-24.194C512,112.314,510.119,109.548,507.257,108.417z M472.409,152.952   c0,5.131-4.175,9.306-9.306,9.306H48.896c-5.131,0-9.306-4.174-9.306-9.306v-5.866h432.818V152.952z"/>
	<path fill="white" d="M287.837,82.704c0-17.555-14.282-31.836-31.837-31.836s-31.837,14.282-31.837,31.836s14.282,31.837,31.837,31.837   S287.837,100.259,287.837,82.704z M239.163,82.704c0-9.284,7.553-16.836,16.837-16.836s16.837,7.553,16.837,16.836   S265.284,99.541,256,99.541S239.163,91.988,239.163,82.704z"/>
	<path fill="white" d="M385.361,362.198h-9.829h-8.305h-9.829c-14.066,0-27.171,6.967-35.056,18.636c-2.318,3.432-1.416,8.094,2.016,10.413   c3.435,2.32,8.096,1.417,10.414-2.016c5.054-7.48,13.427-11.962,22.429-12.027l-8.649,29.398c-0.766,2.602-0.066,5.415,1.829,7.356   l15.633,16.011c1.411,1.445,3.346,2.26,5.366,2.26s3.955-0.815,5.366-2.26l15.633-16.011c1.896-1.941,2.595-4.754,1.829-7.356   l-8.65-29.399c14.951,0.107,27.083,12.299,27.083,27.276v35.333H353c-4.143,0-7.5,3.358-7.5,7.5s3.357,7.5,7.5,7.5h67.142   c4.143,0,7.5-3.358,7.5-7.5v-42.833C427.642,381.165,408.675,362.198,385.361,362.198z M371.38,413.994l-7.198-7.372l7.198-24.465   l7.198,24.465L371.38,413.994z"/>
	<path fill="white" d="M187.642,391.246c3.432-2.319,4.334-6.981,2.016-10.413c-7.885-11.669-20.989-18.636-35.056-18.636h-9.829h-8.305h-9.829   c-23.313,0-42.28,18.967-42.28,42.281v42.833c0,4.142,3.357,7.5,7.5,7.5H159c4.143,0,7.5-3.358,7.5-7.5s-3.357-7.5-7.5-7.5H99.358   v-35.333c0-14.976,12.132-27.169,27.083-27.276l-8.65,29.399c-0.766,2.602-0.066,5.415,1.829,7.356l15.633,16.011   c1.411,1.445,3.346,2.26,5.366,2.26s3.955-0.815,5.366-2.26l15.633-16.011c1.896-1.941,2.595-4.754,1.829-7.356l-8.649-29.398   c9.002,0.065,17.375,4.547,22.429,12.027C179.546,392.663,184.21,393.566,187.642,391.246z M140.62,413.994l-7.198-7.372   l7.198-24.465l7.198,24.465L140.62,413.994z"/>
	<path fill="white" d="M93.418,295.768v15.472c0,26.027,21.175,47.202,47.202,47.202c26.028,0,47.203-21.175,47.203-47.202v-11.647v-7.494   c0-0.841-0.024-1.677-0.068-2.507c-0.01-0.187-0.03-0.372-0.042-0.558c-0.042-0.65-0.09-1.299-0.158-1.942   c-0.021-0.195-0.051-0.388-0.074-0.582c-0.075-0.634-0.156-1.266-0.257-1.892c-0.031-0.195-0.071-0.389-0.104-0.583   c-0.107-0.621-0.222-1.24-0.354-1.853c-0.043-0.202-0.094-0.403-0.14-0.604c-0.137-0.598-0.281-1.192-0.44-1.781   c-0.059-0.218-0.124-0.435-0.186-0.652c-0.161-0.563-0.329-1.122-0.51-1.676c-0.079-0.242-0.162-0.481-0.244-0.721   c-0.178-0.516-0.363-1.028-0.559-1.536c-0.104-0.272-0.212-0.543-0.321-0.813c-0.187-0.46-0.381-0.916-0.582-1.369   c-0.136-0.307-0.273-0.613-0.416-0.918c-0.187-0.397-0.381-0.789-0.577-1.179c-0.174-0.346-0.347-0.691-0.53-1.033   c-0.173-0.324-0.355-0.642-0.536-0.962c-0.222-0.393-0.442-0.786-0.675-1.173c-0.133-0.22-0.275-0.435-0.411-0.654   c-1.448-2.314-3.097-4.51-4.943-6.559c-0.062-0.068-0.121-0.139-0.182-0.207c-0.398-0.437-0.81-0.862-1.225-1.285   c-0.147-0.15-0.292-0.302-0.441-0.45c-0.38-0.376-0.769-0.744-1.163-1.108c-0.202-0.187-0.404-0.374-0.609-0.557   c-0.183-0.164-0.356-0.335-0.542-0.496c-0.063-0.058-0.126-0.114-0.19-0.17c-0.102-0.086-0.204-0.171-0.266-0.219   c-0.364-0.308-0.732-0.611-1.105-0.908l-0.505-0.395c-0.202-0.156-0.406-0.306-0.609-0.458c-0.009-0.006-0.017-0.013-0.025-0.019   c-0.13-0.097-0.26-0.198-0.39-0.293c-0.205-0.15-0.411-0.299-0.627-0.452c-0.273-0.193-0.547-0.379-0.819-0.562   c-0.002-0.001-0.004-0.003-0.006-0.004c-0.042-0.028-0.085-0.059-0.126-0.087c-0.237-0.16-0.476-0.318-0.72-0.476   c-0.292-0.188-0.587-0.371-0.873-0.546c-0.044-0.027-0.092-0.055-0.136-0.083c-0.043-0.026-0.087-0.052-0.13-0.079   c-0.191-0.117-0.378-0.232-0.585-0.354c-0.239-0.14-0.48-0.274-0.745-0.422l-0.099-0.055c-0.115-0.064-0.221-0.121-0.334-0.184   c-0.079-0.043-0.158-0.088-0.238-0.131c-0.103-0.057-0.214-0.12-0.312-0.172c-0.138-0.074-0.277-0.145-0.418-0.216l-0.123-0.063   c-0.118-0.061-0.239-0.111-0.357-0.171c-0.576-0.29-1.159-0.568-1.748-0.835c-0.227-0.103-0.453-0.209-0.68-0.308   c-0.602-0.261-1.211-0.507-1.826-0.744c-0.214-0.083-0.425-0.173-0.64-0.253c-0.761-0.281-1.532-0.543-2.311-0.785   c-0.419-0.131-0.844-0.242-1.266-0.36c-0.384-0.107-0.766-0.218-1.154-0.316c-0.464-0.117-0.932-0.221-1.4-0.324   c-0.362-0.08-0.724-0.158-1.088-0.229c-0.465-0.091-0.931-0.174-1.399-0.25c-0.395-0.065-0.792-0.122-1.191-0.177   c-0.438-0.06-0.875-0.12-1.316-0.168c-0.484-0.053-0.973-0.091-1.461-0.129c-0.363-0.028-0.724-0.063-1.089-0.083   c-0.819-0.045-1.643-0.07-2.473-0.072c-0.044,0-0.088-0.004-0.132-0.004c-26.027,0-47.202,21.175-47.202,47.203V295.768z    M140.62,343.442c-17.756,0-32.202-14.446-32.202-32.202v-5.188c3.79,0.82,7.667,1.239,11.606,1.239   c12.598,0,24.768-4.365,34.468-12.188c5.088,5.088,11.387,8.756,18.331,10.67v5.466   C172.823,328.996,158.377,343.442,140.62,343.442z M142.392,259.947c0.256,0.014,0.51,0.038,0.764,0.058   c0.326,0.025,0.651,0.051,0.975,0.086c0.305,0.033,0.608,0.074,0.911,0.116c0.265,0.036,0.53,0.075,0.794,0.118   c0.325,0.053,0.649,0.111,0.97,0.174c0.241,0.047,0.481,0.099,0.721,0.151c0.325,0.071,0.65,0.144,0.971,0.225   c0.255,0.065,0.508,0.137,0.761,0.208c0.296,0.083,0.593,0.161,0.885,0.252c0.529,0.165,1.055,0.342,1.576,0.534   c0.128,0.047,0.253,0.101,0.38,0.15c0.44,0.17,0.879,0.345,1.314,0.535c0.129,0.056,0.255,0.116,0.383,0.173   c0.44,0.199,0.878,0.406,1.311,0.626c0.241,0.122,0.483,0.242,0.721,0.37c0.11,0.06,0.22,0.121,0.33,0.182   c0.328,0.182,0.654,0.368,0.975,0.561c0.097,0.059,0.193,0.116,0.293,0.178c0.018,0.011,0.036,0.022,0.054,0.033   c0.336,0.207,0.668,0.42,0.996,0.639c0.014,0.009,0.026,0.017,0.04,0.027c0.098,0.065,0.191,0.131,0.288,0.197   c0.329,0.226,0.655,0.456,0.974,0.693c0.052,0.039,0.103,0.076,0.156,0.116c0.337,0.254,0.668,0.516,0.995,0.782   c0.098,0.08,0.197,0.16,0.294,0.242c0.231,0.193,0.457,0.392,0.683,0.592c0.199,0.176,0.397,0.353,0.591,0.533   c0.202,0.187,0.401,0.378,0.598,0.57c0.172,0.168,0.343,0.338,0.511,0.509c0.205,0.21,0.408,0.422,0.608,0.637   c0.152,0.164,0.302,0.33,0.451,0.497c0.202,0.227,0.401,0.456,0.597,0.689c0.14,0.166,0.277,0.333,0.413,0.502   c0.191,0.237,0.38,0.476,0.565,0.719c0.134,0.176,0.266,0.355,0.396,0.534c0.174,0.238,0.345,0.477,0.512,0.72   c0.136,0.198,0.269,0.398,0.4,0.599c0.15,0.228,0.298,0.457,0.442,0.689c0.141,0.227,0.277,0.457,0.412,0.688   c0.124,0.211,0.247,0.422,0.366,0.636c0.146,0.263,0.287,0.53,0.426,0.797c0.097,0.187,0.195,0.373,0.288,0.562   c0.149,0.301,0.291,0.605,0.43,0.91c0.074,0.163,0.149,0.325,0.221,0.489c0.146,0.334,0.284,0.672,0.418,1.011   c0.056,0.142,0.114,0.283,0.168,0.426c0.136,0.359,0.264,0.722,0.388,1.086c0.044,0.131,0.09,0.261,0.133,0.393   c0.12,0.37,0.231,0.744,0.338,1.119c0.038,0.134,0.078,0.268,0.115,0.402c0.1,0.368,0.19,0.739,0.277,1.112   c0.035,0.149,0.071,0.298,0.104,0.448c0.077,0.353,0.145,0.708,0.21,1.065c0.032,0.178,0.066,0.355,0.096,0.533   c0.054,0.326,0.1,0.655,0.144,0.984c0.029,0.215,0.058,0.43,0.083,0.647c0.033,0.295,0.06,0.592,0.085,0.889   c0.013,0.153,0.024,0.307,0.035,0.46c-4.525-2.094-8.424-5.447-11.231-9.772c-1.269-1.955-3.374-3.209-5.697-3.394   c-2.312-0.186-4.6,0.721-6.161,2.452c-7.562,8.378-18.357,13.184-29.62,13.184c-3.96,0-7.833-0.573-11.568-1.709   c0.001-0.025,0-0.049,0.002-0.074c0.011-0.22,0.032-0.437,0.047-0.655c0.022-0.319,0.042-0.639,0.073-0.956   c0.022-0.227,0.054-0.451,0.082-0.676c0.037-0.305,0.071-0.611,0.116-0.914c0.034-0.228,0.077-0.453,0.116-0.679   c0.051-0.296,0.1-0.593,0.159-0.886c0.045-0.227,0.099-0.45,0.15-0.675c0.064-0.289,0.127-0.578,0.2-0.864   c0.057-0.224,0.121-0.445,0.182-0.667c0.078-0.281,0.155-0.563,0.24-0.842c0.068-0.223,0.143-0.442,0.216-0.663   c0.09-0.273,0.18-0.547,0.277-0.816c0.079-0.218,0.164-0.433,0.247-0.649c0.103-0.267,0.206-0.535,0.315-0.798   c0.089-0.214,0.183-0.424,0.276-0.635c0.115-0.26,0.23-0.52,0.352-0.777c0.099-0.208,0.202-0.414,0.305-0.62   c0.127-0.254,0.255-0.507,0.389-0.757c0.108-0.202,0.22-0.401,0.332-0.6c0.139-0.248,0.28-0.495,0.425-0.739   c0.117-0.195,0.237-0.388,0.358-0.581c0.151-0.24,0.302-0.479,0.459-0.715c0.126-0.19,0.255-0.377,0.385-0.564   c0.161-0.232,0.324-0.463,0.492-0.691c0.134-0.183,0.271-0.363,0.409-0.543c0.172-0.225,0.347-0.448,0.525-0.668   c0.142-0.175,0.286-0.349,0.432-0.522c0.183-0.217,0.368-0.431,0.557-0.643c0.15-0.168,0.301-0.335,0.455-0.5   c0.193-0.208,0.389-0.414,0.588-0.617c0.157-0.161,0.315-0.32,0.476-0.477c0.203-0.199,0.41-0.395,0.618-0.589   c0.164-0.152,0.328-0.304,0.495-0.453c0.213-0.19,0.43-0.377,0.648-0.562c0.17-0.144,0.341-0.287,0.514-0.428   c0.223-0.181,0.449-0.357,0.676-0.532c0.177-0.136,0.354-0.271,0.533-0.403c0.232-0.171,0.467-0.336,0.704-0.501   c0.182-0.126,0.363-0.253,0.548-0.376c0.241-0.161,0.486-0.316,0.732-0.47c0.188-0.118,0.375-0.236,0.564-0.35   c0.25-0.149,0.503-0.293,0.756-0.435c0.193-0.109,0.385-0.218,0.58-0.323c0.258-0.138,0.52-0.27,0.782-0.401   c0.197-0.099,0.393-0.199,0.592-0.294c0.268-0.127,0.539-0.247,0.811-0.367c0.2-0.088,0.399-0.179,0.601-0.264   c0.277-0.116,0.558-0.223,0.839-0.331c0.202-0.078,0.402-0.158,0.606-0.232c0.289-0.105,0.582-0.2,0.875-0.296   c0.201-0.066,0.4-0.136,0.603-0.198c0.3-0.092,0.604-0.175,0.908-0.259c0.2-0.055,0.399-0.115,0.601-0.166   c0.313-0.08,0.631-0.149,0.948-0.219c0.197-0.044,0.391-0.092,0.589-0.132c0.333-0.068,0.67-0.123,1.007-0.18   c0.186-0.031,0.37-0.068,0.557-0.097c0.365-0.055,0.734-0.098,1.102-0.141c0.162-0.019,0.323-0.044,0.486-0.06   c0.435-0.044,0.875-0.074,1.315-0.1c0.099-0.006,0.197-0.017,0.296-0.022c0.544-0.027,1.091-0.042,1.642-0.042   c0.045,0,0.089,0.003,0.134,0.003C141.303,259.902,141.849,259.918,142.392,259.947z"/>
	<path fill="white" d="M324.177,295.768v15.472c0,26.027,21.175,47.202,47.203,47.202c26.027,0,47.202-21.175,47.202-47.202v-11.647v-7.494   c0-0.841-0.024-1.676-0.068-2.507c-0.01-0.187-0.031-0.373-0.042-0.56c-0.042-0.649-0.089-1.296-0.157-1.937   c-0.021-0.199-0.052-0.395-0.076-0.593c-0.075-0.63-0.156-1.258-0.255-1.88c-0.032-0.198-0.072-0.394-0.106-0.591   c-0.107-0.618-0.221-1.233-0.351-1.842c-0.044-0.207-0.096-0.411-0.143-0.617c-0.135-0.593-0.278-1.183-0.436-1.767   c-0.06-0.223-0.126-0.444-0.189-0.666c-0.159-0.556-0.325-1.11-0.504-1.658c-0.081-0.248-0.166-0.495-0.251-0.742   c-0.175-0.508-0.358-1.013-0.55-1.513c-0.107-0.279-0.217-0.557-0.33-0.834c-0.184-0.452-0.375-0.901-0.572-1.346   c-0.139-0.314-0.279-0.627-0.425-0.938c-0.182-0.388-0.372-0.772-0.565-1.154c-0.178-0.354-0.356-0.708-0.543-1.058   c-0.167-0.313-0.343-0.621-0.518-0.93c-0.227-0.403-0.454-0.807-0.693-1.203c-0.127-0.21-0.262-0.415-0.392-0.623   c-1.457-2.333-3.119-4.545-4.979-6.609c-0.053-0.059-0.105-0.121-0.158-0.18c-0.399-0.438-0.812-0.864-1.229-1.288   c-0.147-0.149-0.291-0.301-0.44-0.449c-0.377-0.374-0.764-0.739-1.155-1.101c-0.206-0.191-0.411-0.381-0.621-0.569   c-0.177-0.159-0.345-0.325-0.525-0.481c-0.067-0.063-0.136-0.124-0.206-0.185c-0.102-0.086-0.204-0.171-0.275-0.227   c-0.364-0.308-0.731-0.611-1.077-0.885l-0.533-0.417c-0.338-0.26-0.678-0.517-1.015-0.763c-0.199-0.146-0.401-0.291-0.627-0.452   c-0.317-0.224-0.638-0.443-0.951-0.652c-0.237-0.16-0.476-0.318-0.72-0.476c-0.292-0.188-0.587-0.371-0.885-0.553l-0.102-0.063   c-0.021-0.013-0.045-0.027-0.067-0.04c-0.012-0.007-0.023-0.014-0.035-0.021c-0.206-0.126-0.41-0.25-0.636-0.384   c-0.212-0.124-0.425-0.243-0.639-0.362l-0.18-0.101c-0.129-0.073-0.252-0.138-0.38-0.209c-0.068-0.038-0.136-0.076-0.205-0.113   c-0.107-0.059-0.22-0.123-0.323-0.178c-0.14-0.074-0.281-0.146-0.423-0.218l-0.119-0.061c-0.116-0.06-0.236-0.109-0.352-0.168   c-0.58-0.292-1.167-0.572-1.759-0.841c-0.224-0.102-0.446-0.206-0.671-0.304c-0.606-0.263-1.22-0.511-1.839-0.749   c-0.21-0.081-0.417-0.17-0.628-0.248c-0.762-0.281-1.534-0.543-2.315-0.786c-0.417-0.13-0.839-0.24-1.259-0.358   c-0.386-0.108-0.77-0.219-1.16-0.318c-0.464-0.117-0.931-0.221-1.398-0.324c-0.362-0.08-0.725-0.158-1.09-0.229   c-0.465-0.091-0.931-0.174-1.399-0.25c-0.395-0.065-0.792-0.122-1.19-0.177c-0.438-0.06-0.876-0.12-1.316-0.168   c-0.484-0.053-0.972-0.091-1.461-0.129c-0.363-0.028-0.724-0.063-1.089-0.083c-0.819-0.045-1.644-0.07-2.473-0.072   c-0.044,0-0.088-0.004-0.132-0.004c-26.028,0-47.203,21.175-47.203,47.203V295.768z M371.38,343.442   c-17.757,0-32.203-14.446-32.203-32.202v-5.188c3.79,0.82,7.667,1.239,11.607,1.239c12.597,0,24.769-4.366,34.468-12.187   c5.088,5.087,11.386,8.755,18.33,10.67v5.466C403.582,328.996,389.136,343.442,371.38,343.442z M373.152,259.947   c0.256,0.014,0.508,0.038,0.762,0.058c0.327,0.025,0.653,0.051,0.978,0.086c0.304,0.033,0.606,0.074,0.908,0.116   c0.267,0.037,0.533,0.075,0.799,0.118c0.323,0.053,0.645,0.11,0.965,0.173c0.244,0.048,0.487,0.1,0.729,0.153   c0.323,0.071,0.645,0.143,0.964,0.223c0.26,0.066,0.517,0.14,0.774,0.212c0.291,0.081,0.584,0.159,0.871,0.248   c0.531,0.165,1.059,0.343,1.582,0.536c0.123,0.045,0.242,0.097,0.364,0.144c0.447,0.172,0.892,0.35,1.332,0.542   c0.125,0.054,0.248,0.112,0.371,0.168c0.444,0.201,0.886,0.41,1.324,0.632c0.252,0.128,0.506,0.253,0.754,0.387   c0.076,0.042,0.163,0.09,0.25,0.138c0.352,0.194,0.7,0.394,1.043,0.601c0.053,0.032,0.106,0.064,0.159,0.096l0.108,0.066   c0.01,0.006,0.02,0.013,0.03,0.019c0.352,0.216,0.699,0.439,1.041,0.668c0.006,0.004,0.012,0.008,0.019,0.012   c0.091,0.061,0.173,0.119,0.262,0.179c0.323,0.221,0.642,0.448,0.957,0.681c0.101,0.075,0.208,0.156,0.313,0.235   c0.299,0.227,0.594,0.459,0.885,0.696c0.094,0.077,0.188,0.154,0.281,0.231c0.234,0.195,0.462,0.396,0.69,0.598   c0.201,0.177,0.4,0.356,0.596,0.537c0.201,0.187,0.4,0.377,0.596,0.568c0.173,0.168,0.343,0.338,0.512,0.51   c0.206,0.21,0.409,0.423,0.609,0.639c0.151,0.163,0.3,0.327,0.447,0.492c0.204,0.229,0.405,0.46,0.602,0.695   c0.137,0.164,0.272,0.329,0.406,0.495c0.194,0.239,0.384,0.481,0.571,0.726c0.132,0.174,0.261,0.349,0.39,0.525   c0.176,0.241,0.35,0.484,0.519,0.73c0.133,0.193,0.263,0.389,0.392,0.585c0.153,0.233,0.304,0.466,0.451,0.703   c0.138,0.223,0.271,0.448,0.404,0.673c0.126,0.215,0.252,0.431,0.374,0.65c0.144,0.259,0.282,0.52,0.418,0.783   c0.1,0.191,0.199,0.382,0.295,0.575c0.147,0.297,0.287,0.597,0.425,0.898c0.076,0.166,0.153,0.332,0.226,0.5   c0.144,0.331,0.281,0.665,0.414,1c0.058,0.146,0.117,0.291,0.173,0.437c0.135,0.357,0.262,0.717,0.385,1.078   c0.045,0.133,0.092,0.265,0.135,0.399c0.12,0.369,0.231,0.742,0.338,1.115c0.039,0.135,0.079,0.27,0.115,0.406   c0.1,0.367,0.19,0.737,0.276,1.108c0.035,0.15,0.072,0.3,0.104,0.451c0.077,0.352,0.145,0.707,0.21,1.062   c0.032,0.178,0.066,0.356,0.096,0.535c0.054,0.326,0.1,0.654,0.144,0.982c0.029,0.216,0.058,0.431,0.083,0.648   c0.033,0.295,0.06,0.592,0.085,0.889c0.013,0.153,0.024,0.307,0.035,0.46c-4.525-2.094-8.424-5.447-11.231-9.772   c-1.269-1.955-3.374-3.209-5.697-3.394c-2.323-0.186-4.601,0.721-6.162,2.452c-7.561,8.378-18.355,13.183-29.618,13.183   c-3.96,0-7.833-0.573-11.569-1.709c0.001-0.025,0-0.049,0.002-0.074c0.011-0.22,0.032-0.437,0.047-0.655   c0.022-0.319,0.042-0.639,0.073-0.956c0.022-0.227,0.054-0.451,0.082-0.676c0.037-0.305,0.071-0.611,0.116-0.914   c0.034-0.228,0.077-0.453,0.116-0.679c0.051-0.296,0.1-0.593,0.159-0.886c0.045-0.227,0.099-0.45,0.15-0.675   c0.064-0.289,0.127-0.578,0.2-0.864c0.056-0.223,0.121-0.444,0.182-0.665c0.078-0.282,0.155-0.565,0.24-0.845   c0.068-0.221,0.142-0.439,0.214-0.658c0.091-0.274,0.18-0.549,0.278-0.82c0.078-0.218,0.163-0.433,0.246-0.649   c0.103-0.267,0.206-0.535,0.315-0.798c0.089-0.214,0.183-0.424,0.276-0.635c0.115-0.26,0.23-0.52,0.352-0.777   c0.099-0.208,0.202-0.414,0.305-0.62c0.127-0.254,0.255-0.507,0.388-0.757c0.108-0.202,0.22-0.402,0.333-0.602   c0.139-0.247,0.279-0.493,0.423-0.735c0.118-0.197,0.239-0.391,0.36-0.585c0.15-0.239,0.301-0.477,0.457-0.712   c0.126-0.19,0.255-0.378,0.385-0.565c0.161-0.233,0.325-0.464,0.492-0.692c0.134-0.182,0.27-0.362,0.408-0.542   c0.173-0.225,0.348-0.448,0.526-0.669c0.142-0.175,0.286-0.349,0.432-0.522c0.183-0.216,0.368-0.431,0.557-0.642   c0.15-0.169,0.302-0.336,0.456-0.501c0.193-0.208,0.389-0.413,0.587-0.616c0.157-0.161,0.315-0.32,0.476-0.477   c0.203-0.199,0.41-0.395,0.618-0.589c0.164-0.152,0.328-0.304,0.495-0.453c0.214-0.191,0.431-0.378,0.649-0.563   c0.17-0.144,0.34-0.287,0.513-0.427c0.222-0.181,0.448-0.357,0.676-0.532c0.177-0.136,0.354-0.272,0.534-0.404   c0.231-0.17,0.467-0.336,0.703-0.5c0.182-0.127,0.364-0.253,0.548-0.376c0.241-0.161,0.487-0.316,0.733-0.471   c0.187-0.117,0.373-0.235,0.563-0.348c0.25-0.15,0.504-0.293,0.758-0.437c0.192-0.108,0.384-0.218,0.579-0.322   c0.258-0.138,0.521-0.27,0.783-0.402c0.197-0.099,0.392-0.199,0.591-0.293c0.268-0.127,0.54-0.247,0.812-0.368   c0.199-0.088,0.398-0.179,0.599-0.263c0.278-0.116,0.56-0.224,0.841-0.332c0.201-0.078,0.401-0.158,0.604-0.231   c0.289-0.104,0.581-0.2,0.874-0.296c0.201-0.066,0.401-0.136,0.604-0.199c0.3-0.092,0.604-0.175,0.907-0.258   c0.201-0.055,0.4-0.115,0.602-0.166c0.313-0.08,0.631-0.149,0.948-0.219c0.197-0.044,0.391-0.092,0.589-0.132   c0.333-0.068,0.67-0.123,1.007-0.18c0.186-0.031,0.37-0.068,0.556-0.097c0.365-0.055,0.734-0.098,1.103-0.141   c0.162-0.019,0.323-0.044,0.486-0.06c0.436-0.044,0.875-0.074,1.315-0.1c0.099-0.006,0.196-0.017,0.295-0.022   c0.544-0.027,1.091-0.042,1.642-0.042c0.045,0,0.089,0.003,0.134,0.003C372.062,259.902,372.609,259.918,373.152,259.947z"/>
	<path fill="white" d="M275.101,381.31h-13.428h-11.346h-13.428c-30.337,0-55.018,24.681-55.018,55.017v58.518c0,4.142,3.357,7.5,7.5,7.5h133.236   c4.143,0,7.5-3.358,7.5-7.5v-58.518C330.118,405.991,305.438,381.31,275.101,381.31z M256.062,396.31l12.861,43.714L256,453.26   l-12.923-13.235l12.861-43.714H256.062z M315.118,487.345H196.882v-51.018c0-22.065,17.952-40.017,40.018-40.017h3.403   l-12.855,43.694c-0.766,2.602-0.066,5.415,1.829,7.356l21.357,21.874c1.411,1.446,3.346,2.261,5.366,2.261s3.955-0.815,5.366-2.261   l21.357-21.874c1.896-1.941,2.595-4.754,1.829-7.356l-12.855-43.694h3.403c22.065,0,40.018,17.952,40.018,40.017V487.345z"/>
	<path fill="white" d="M194.259,285.679v5.014v21.137c0,34.044,27.697,61.742,61.741,61.742s61.741-27.697,61.741-61.742v-15.912v-10.239   c0-1.101-0.031-2.194-0.089-3.281c-0.013-0.245-0.04-0.487-0.056-0.731c-0.055-0.85-0.117-1.698-0.206-2.539   c-0.027-0.257-0.067-0.51-0.098-0.766c-0.098-0.828-0.205-1.653-0.335-2.471c-0.041-0.257-0.093-0.51-0.137-0.766   c-0.141-0.812-0.29-1.621-0.463-2.423c-0.057-0.264-0.122-0.525-0.182-0.787c-0.179-0.784-0.368-1.564-0.577-2.336   c-0.077-0.283-0.16-0.564-0.241-0.846c-0.211-0.738-0.432-1.471-0.669-2.198c-0.103-0.314-0.211-0.627-0.318-0.939   c-0.234-0.678-0.478-1.351-0.734-2.018c-0.135-0.352-0.274-0.703-0.416-1.052c-0.247-0.607-0.503-1.208-0.768-1.806   c-0.175-0.396-0.352-0.791-0.536-1.183c-0.247-0.526-0.505-1.046-0.766-1.564c-0.224-0.445-0.447-0.89-0.682-1.33   c-0.231-0.432-0.474-0.857-0.715-1.283c-0.285-0.505-0.569-1.012-0.869-1.509c-0.181-0.3-0.374-0.593-0.56-0.889   c-1.867-2.981-3.992-5.81-6.364-8.455c-0.114-0.127-0.223-0.258-0.338-0.384c-0.501-0.549-1.02-1.084-1.542-1.616   c-0.214-0.219-0.426-0.44-0.644-0.656c-0.48-0.475-0.972-0.94-1.469-1.4c-0.284-0.263-0.568-0.526-0.857-0.784   c-0.234-0.209-0.456-0.429-0.694-0.635c-0.082-0.077-0.165-0.151-0.251-0.225c-0.106-0.091-0.215-0.18-0.341-0.281   c-0.471-0.397-0.945-0.789-1.434-1.178c-0.22-0.174-0.44-0.345-0.666-0.52c-0.258-0.199-0.516-0.389-0.775-0.583   c-0.02-0.015-0.04-0.03-0.06-0.045c-0.169-0.126-0.338-0.259-0.507-0.381c-0.265-0.193-0.529-0.384-0.811-0.583   c-0.353-0.249-0.71-0.492-1.067-0.733c-0.005-0.003-0.009-0.006-0.014-0.01c-0.057-0.038-0.113-0.078-0.17-0.117   c-0.31-0.207-0.619-0.414-0.938-0.62c-0.379-0.244-0.76-0.48-1.157-0.724l-0.169-0.104c-0.01-0.006-0.021-0.013-0.032-0.019   c-0.027-0.017-0.054-0.033-0.082-0.049c-0.265-0.162-0.529-0.324-0.813-0.491c-0.286-0.167-0.574-0.328-0.862-0.489l-0.227-0.127   c-0.147-0.082-0.297-0.163-0.445-0.245c-0.107-0.059-0.214-0.119-0.322-0.177c-0.144-0.079-0.285-0.16-0.432-0.237   c-0.165-0.088-0.333-0.173-0.501-0.257l-0.182-0.092c-0.143-0.073-0.289-0.134-0.432-0.206c-0.777-0.392-1.563-0.767-2.357-1.126   c-0.278-0.126-0.556-0.256-0.835-0.378c-0.812-0.353-1.635-0.685-2.464-1.004c-0.256-0.099-0.51-0.208-0.767-0.303   c-1.003-0.37-2.019-0.715-3.046-1.034c-0.528-0.164-1.062-0.304-1.594-0.454c-0.523-0.147-1.044-0.297-1.572-0.431   c-0.595-0.15-1.195-0.283-1.795-0.415c-0.486-0.107-0.973-0.212-1.464-0.308c-0.597-0.116-1.196-0.223-1.798-0.322   c-0.531-0.087-1.065-0.164-1.6-0.237c-0.559-0.076-1.117-0.153-1.68-0.214c-0.654-0.072-1.313-0.123-1.974-0.174   c-0.455-0.035-0.908-0.079-1.366-0.104c-1.132-0.062-2.271-0.099-3.419-0.099C221.956,223.938,194.259,251.635,194.259,285.679z    M256,358.572c-25.773,0-46.741-20.968-46.741-46.742v-10.569c6.037,1.612,12.26,2.427,18.604,2.427   c17.43,0,34.238-6.349,47.301-17.659c7.362,8.069,16.94,13.696,27.578,16.196v9.604C302.741,337.603,281.773,358.572,256,358.572z    M258.589,239.013c0.345,0.019,0.687,0.052,1.031,0.079c0.5,0.038,0.999,0.078,1.495,0.132c0.426,0.047,0.848,0.104,1.27,0.162   c0.406,0.055,0.812,0.114,1.216,0.18c0.452,0.074,0.902,0.154,1.35,0.242c0.377,0.073,0.752,0.154,1.127,0.237   c0.447,0.099,0.894,0.198,1.336,0.309c0.417,0.105,0.832,0.224,1.246,0.341c0.382,0.108,0.767,0.209,1.145,0.326   c0.786,0.244,1.567,0.507,2.341,0.794c0.142,0.052,0.28,0.113,0.422,0.167c0.686,0.262,1.368,0.537,2.044,0.833   c0.163,0.071,0.324,0.147,0.486,0.22c0.661,0.298,1.318,0.611,1.97,0.941c0.345,0.175,0.693,0.346,1.033,0.53   c0.143,0.078,0.286,0.157,0.428,0.236c0.511,0.282,1.017,0.572,1.516,0.873c0.06,0.037,0.121,0.073,0.181,0.109l0.166,0.102   c0.005,0.003,0.01,0.006,0.015,0.009c0.535,0.329,1.064,0.667,1.585,1.017c0.116,0.078,0.226,0.155,0.341,0.234   c0.49,0.335,0.974,0.679,1.45,1.032c0.12,0.089,0.238,0.178,0.356,0.267c0.474,0.359,0.941,0.725,1.401,1.101   c0.106,0.087,0.212,0.173,0.317,0.261c0.348,0.29,0.687,0.59,1.027,0.89c0.325,0.287,0.646,0.577,0.962,0.871   c0.286,0.267,0.57,0.536,0.85,0.81c0.28,0.274,0.554,0.554,0.826,0.834c0.291,0.299,0.581,0.599,0.864,0.906   c0.246,0.267,0.483,0.54,0.722,0.812c0.288,0.327,0.577,0.652,0.856,0.987c0.22,0.265,0.429,0.537,0.642,0.806   c0.278,0.35,0.562,0.697,0.83,1.055c0.253,0.337,0.49,0.685,0.733,1.028c0.38,0.537,0.749,1.082,1.107,1.636   c0.259,0.401,0.521,0.8,0.767,1.209c0.159,0.263,0.307,0.534,0.461,0.8c0.251,0.436,0.502,0.872,0.739,1.316   c0.134,0.25,0.259,0.504,0.388,0.756c0.243,0.475,0.482,0.952,0.708,1.435c0.109,0.232,0.213,0.468,0.318,0.702   c0.231,0.516,0.456,1.035,0.668,1.559c0.087,0.215,0.172,0.431,0.256,0.648c0.215,0.553,0.419,1.11,0.612,1.671   c0.069,0.2,0.138,0.401,0.204,0.602c0.193,0.584,0.372,1.173,0.542,1.766c0.054,0.189,0.11,0.377,0.161,0.567   c0.166,0.608,0.316,1.222,0.457,1.837c0.042,0.183,0.087,0.365,0.127,0.549c0.135,0.621,0.251,1.248,0.36,1.876   c0.032,0.186,0.07,0.37,0.1,0.557c0.101,0.626,0.182,1.257,0.258,1.888c0.023,0.193,0.053,0.384,0.074,0.578   c0.069,0.641,0.116,1.285,0.158,1.93c0.012,0.186,0.033,0.369,0.042,0.556c0.044,0.828,0.068,1.659,0.068,2.493v0.979   c-8.354-2.791-15.584-8.347-20.516-15.946c-1.269-1.955-3.374-3.209-5.697-3.394c-2.317-0.182-4.6,0.721-6.162,2.452   c-10.849,12.023-26.341,18.918-42.504,18.918c-6.392,0-12.629-1.041-18.601-3.101c0.001-0.402,0.019-0.8,0.03-1.199   c0.01-0.385,0.012-0.772,0.031-1.155c0.021-0.398,0.06-0.791,0.091-1.186c0.031-0.395,0.052-0.792,0.093-1.184   c0.039-0.383,0.097-0.76,0.145-1.139c0.051-0.399,0.094-0.8,0.155-1.196c0.056-0.364,0.129-0.721,0.194-1.082   c0.073-0.406,0.137-0.815,0.22-1.217c0.071-0.341,0.157-0.677,0.235-1.015c0.095-0.415,0.184-0.832,0.29-1.243   c0.083-0.321,0.182-0.635,0.271-0.953c0.119-0.422,0.231-0.846,0.362-1.263c0.092-0.295,0.199-0.584,0.297-0.877   c0.145-0.432,0.284-0.867,0.441-1.293c0.102-0.276,0.217-0.546,0.324-0.82c0.169-0.435,0.334-0.872,0.516-1.3   c0.11-0.258,0.232-0.509,0.346-0.765c0.195-0.436,0.385-0.874,0.592-1.303c0.116-0.239,0.243-0.471,0.363-0.708   c0.221-0.437,0.438-0.877,0.672-1.306c0.119-0.218,0.249-0.429,0.372-0.645c0.249-0.439,0.495-0.88,0.757-1.311   c0.119-0.195,0.248-0.383,0.37-0.576c0.279-0.443,0.555-0.886,0.848-1.319c0.126-0.186,0.261-0.364,0.39-0.548   c0.301-0.43,0.6-0.862,0.914-1.282c0.135-0.18,0.28-0.353,0.417-0.531c0.32-0.415,0.639-0.831,0.973-1.235   c0.125-0.15,0.257-0.294,0.384-0.442c0.357-0.422,0.715-0.844,1.087-1.252c0.128-0.14,0.264-0.273,0.393-0.412   c0.38-0.408,0.761-0.815,1.155-1.209c0.138-0.138,0.284-0.269,0.425-0.405c0.395-0.385,0.791-0.77,1.199-1.141   c0.145-0.131,0.296-0.254,0.443-0.383c0.413-0.366,0.827-0.732,1.253-1.084c0.161-0.133,0.331-0.257,0.494-0.388   c0.42-0.337,0.84-0.675,1.272-0.998c0.163-0.122,0.333-0.235,0.499-0.355c0.441-0.321,0.882-0.642,1.334-0.948   c0.164-0.111,0.334-0.212,0.5-0.32c0.461-0.303,0.922-0.607,1.395-0.894c0.191-0.116,0.389-0.221,0.582-0.335   c0.455-0.268,0.91-0.538,1.375-0.79c0.19-0.103,0.386-0.196,0.577-0.296c0.476-0.25,0.951-0.502,1.436-0.736   c0.212-0.102,0.431-0.193,0.646-0.292c0.472-0.219,0.942-0.44,1.421-0.643c0.25-0.106,0.507-0.198,0.76-0.3   c0.452-0.182,0.902-0.369,1.361-0.537c0.247-0.091,0.5-0.168,0.75-0.254c0.471-0.164,0.941-0.332,1.419-0.481   c0.292-0.091,0.59-0.166,0.884-0.252c0.442-0.128,0.882-0.263,1.33-0.378c0.33-0.085,0.667-0.153,0.999-0.231   c0.419-0.098,0.835-0.204,1.259-0.291c0.33-0.068,0.666-0.118,0.998-0.179c0.433-0.079,0.864-0.166,1.301-0.233   c0.346-0.053,0.698-0.088,1.047-0.133c0.429-0.056,0.855-0.12,1.288-0.164c0.421-0.043,0.847-0.065,1.271-0.097   c0.366-0.027,0.73-0.065,1.098-0.084c0.795-0.04,1.595-0.061,2.4-0.061C256.868,238.938,257.73,238.967,258.589,239.013z"/>
</g>















</svg>
