<?xml version="1.0" encoding="iso-8859-1"?>
<!-- Generator: Adobe Illustrator 19.0.0, SVG Export Plug-In . SVG Version: 6.00 Build 0)  -->
<svg xmlns="http://www.w3.org/2000/svg" xmlns:xlink="http://www.w3.org/1999/xlink" version="1.1" id="Capa_1" x="0px" y="0px" viewBox="0 0 511.989 511.989" style="enable-background:new 0 0 511.989 511.989;" xml:space="preserve" width="512" height="512">
<g>
	<path fill="white" d="M504.89,145.383L320.201,38.759c-3.291-1.906-7.127-2.413-10.798-1.43c-3.673,0.985-6.74,3.344-8.627,6.628l-12.728,22.041   c-1.799-0.322-3.647-0.5-5.537-0.5H156.94c-4.142,0-7.5,3.357-7.5,7.5s3.358,7.5,7.5,7.5h125.57c9.021,0,16.36,7.334,16.36,16.35   v346.95c0,9.016-7.339,16.351-16.36,16.351H61.05c-9.021,0-16.36-7.335-16.36-16.351v-45.304h18.954   c5.921,0,10.739-4.817,10.739-10.739v-19.435c0-5.921-4.817-10.738-10.739-10.738H10.739C4.817,357.583,0,362.4,0,368.321v19.435   c0,5.922,4.817,10.739,10.739,10.739H29.69v45.304c0,17.287,14.068,31.351,31.36,31.351h221.46c17.292,0,31.36-14.063,31.36-31.351   V307.929l47.71,27.545c1.181,0.682,2.471,1.006,3.743,1.006c2.592,0,5.113-1.345,6.502-3.751c2.071-3.587,0.842-8.174-2.745-10.245   l-55.21-31.875v-23.21l65.26,37.675c1.182,0.682,2.471,1.006,3.743,1.006c2.592,0,5.113-1.345,6.502-3.751   c2.071-3.588,0.842-8.175-2.745-10.245l-72.76-42.005V226.87l82.81,47.814c1.182,0.682,2.471,1.006,3.744,1.006   c2.591,0,5.113-1.345,6.502-3.751c2.071-3.587,0.842-8.174-2.745-10.245l-90.311-52.146v-23.209l100.36,57.945   c1.181,0.682,2.471,1.006,3.743,1.006c2.592,0,5.113-1.345,6.502-3.751c2.071-3.587,0.842-8.174-2.745-10.245l-107.86-62.275   v-72.17c0-10.015-4.727-18.94-12.062-24.684l11.565-20.026l183.342,105.846L337.944,432.978c-3.462-1.548-7.608-0.26-9.548,3.099   c-2.072,3.586-0.845,8.174,2.742,10.246c2.23,1.289,4.669,1.901,7.08,1.901c4.915-0.001,9.707-2.549,12.347-7.105l159.538-276.324   C513.999,158.015,511.665,149.31,504.89,145.383z M15,372.583h44.383v10.912H15V372.583z"/>
	<path fill="white" d="M430.955,155.172l-82.268-47.497c-3.588-2.071-8.174-0.843-10.245,2.745c-2.071,3.587-0.842,8.174,2.745,10.245   l82.268,47.497c1.181,0.682,2.471,1.006,3.743,1.006c2.592,0,5.113-1.345,6.502-3.751   C435.771,161.83,434.542,157.243,430.955,155.172z"/>
	<path fill="white" d="M10.739,153.406H29.69v55.593c0,4.143,3.358,7.5,7.5,7.5s7.5-3.357,7.5-7.5v-55.593h18.954   c5.921,0,10.739-4.817,10.739-10.739v-19.435c0-5.922-4.817-10.739-10.739-10.739H44.69V96.848c0-9.016,7.339-16.35,16.36-16.35   h65.9c4.142,0,7.5-3.357,7.5-7.5s-3.358-7.5-7.5-7.5h-65.9c-17.292,0-31.36,14.063-31.36,31.35v15.645H10.739   C4.817,112.493,0,117.31,0,123.232v19.435C0,148.589,4.817,153.406,10.739,153.406z M15,127.493h44.383v10.913H15V127.493z"/>
	<path fill="white" d="M10.739,275.95h18.952v59.254c0,4.143,3.358,7.5,7.5,7.5s7.5-3.357,7.5-7.5V275.95h18.953   c5.921,0,10.739-4.817,10.739-10.738v-19.435c0-5.922-4.817-10.739-10.739-10.739H10.739C4.817,235.038,0,239.855,0,245.777v19.435   C0,271.133,4.817,275.95,10.739,275.95z M15,250.038h44.383v10.912H15V250.038z"/>
	<path fill="white" d="M103.629,147.61v38.978c0,7.112,5.786,12.898,12.898,12.898h110.504c7.112,0,12.898-5.786,12.898-12.898V147.61   c0-7.112-5.786-12.898-12.898-12.898H116.527C109.415,134.712,103.629,140.498,103.629,147.61z M118.629,149.712H224.93v34.774   H118.629V149.712z"/>
</g>















</svg>
