<?xml version="1.0" encoding="iso-8859-1"?>
<!-- Generator: Adobe Illustrator 19.0.0, SVG Export Plug-In . SVG Version: 6.00 Build 0)  -->
<svg xmlns="http://www.w3.org/2000/svg" xmlns:xlink="http://www.w3.org/1999/xlink" version="1.1" id="Capa_1" x="0px" y="0px" viewBox="0 0 512 512" style="enable-background:new 0 0 512 512;" xml:space="preserve" width="512" height="512">
<g>
	<path fill="white" d="M337.392,377.361c-3.438,2.311-4.352,6.971-2.041,10.408c1.447,2.154,3.817,3.317,6.231,3.317   c1.438,0,2.894-0.414,4.177-1.276c16.269-10.935,30.137-24.531,41.213-39.984c0.12-0.155,0.237-0.313,0.345-0.477   c19.123-26.889,29.79-59.369,29.79-93.349c0-34.475-10.889-66.451-29.401-92.682c-0.337-0.65-0.765-1.244-1.269-1.765   c-29.308-40.366-76.859-66.669-130.446-66.669c-23.574,0-46.297,4.979-67.537,14.798c-3.76,1.738-5.398,6.195-3.66,9.955   c1.737,3.759,6.194,5.399,9.955,3.66c9.401-4.346,19.125-7.638,29.104-9.877c-6.338,7.999-12.09,18.475-17.049,31.242   c-1.8,4.635-3.459,9.528-5.004,14.602h-55.278c6.863-7.762,14.532-14.819,22.869-20.963c3.334-2.458,4.045-7.153,1.588-10.487   c-2.458-3.334-7.153-4.044-10.487-1.588c-13.521,9.966-25.468,22.09-35.293,35.709c-0.237,0.281-0.449,0.582-0.643,0.896   c-4.379,6.158-8.331,12.614-11.792,19.313c-11.704,22.652-17.89,48.192-17.89,73.858c0,34.476,10.89,66.453,29.403,92.684   c0.336,0.648,0.763,1.24,1.266,1.76c29.308,40.368,76.86,66.672,130.448,66.672c21.485,0,42.351-4.162,62.017-12.371   c3.823-1.596,5.628-5.988,4.032-9.811c-1.595-3.822-5.99-5.626-9.81-4.032c-7.837,3.271-15.886,5.832-24.102,7.677   c6.338-7.999,12.089-18.475,17.048-31.24c1.801-4.635,3.46-9.528,5.005-14.602h55.316   C357.316,361.992,347.91,370.292,337.392,377.361z M365.396,159.263h-30.918c-4.143,0-7.5,3.358-7.5,7.5s3.357,7.5,7.5,7.5h42.572   c14.497,21.403,23.475,46.836,24.867,74.237h-78.825c-0.715-39.135-7.01-75.766-17.916-103.839   c-4.951-12.745-10.692-23.208-17.018-31.202C318.567,120.318,345.411,136.686,365.396,159.263z M203.888,263.5h104.203   c-0.528,28.173-4.011,53.335-9.326,74.237h-85.586C207.61,315.734,204.393,290.293,203.888,263.5z M203.89,248.5   c0.528-28.173,4.011-53.335,9.326-74.237h85.586c5.569,22.003,8.786,47.444,9.291,74.237H203.89z M255.991,109.883   c12.446,0,25.277,14.656,35.204,40.209c1.145,2.948,2.224,6.023,3.26,9.17h-76.878   C227.822,128.263,242.336,109.883,255.991,109.883z M126.09,189.027c2.628-5.086,5.568-10.016,8.784-14.765h62.867   c-5.312,22.341-8.368,47.708-8.852,74.237h-78.817C111.109,227.612,116.475,207.637,126.09,189.027z M146.584,352.737h30.074   c4.142,0,7.5-3.358,7.5-7.5s-3.358-7.5-7.5-7.5h-41.727c-14.498-21.403-23.475-46.836-24.867-74.237h78.825   c0.715,39.135,7.01,75.766,17.915,103.839c4.951,12.745,10.692,23.208,17.018,31.202   C193.413,391.682,166.57,375.314,146.584,352.737z M255.991,402.117c-12.446,0-25.278-14.656-35.204-40.209   c-1.145-2.948-2.224-6.023-3.26-9.17h76.878C284.159,383.737,269.645,402.117,255.991,402.117z M314.24,337.737   c5.312-22.341,8.368-47.709,8.852-74.237h78.807c-1.373,26.87-10.084,52.455-24.791,74.237H314.24z"/>
	<path fill="white" d="M414.428,113.042L300.576,47.313c-3.589-2.072-8.175-0.842-10.245,2.745c-2.071,3.587-0.842,8.174,2.745,10.245   l113.852,65.729c1.182,0.682,2.471,1.006,3.743,1.006c2.592,0,5.113-1.346,6.502-3.751   C419.244,119.7,418.015,115.113,414.428,113.042z"/>
	<path fill="white" d="M67.967,321.706V190.294c0-4.142-3.358-7.5-7.5-7.5s-7.5,3.358-7.5,7.5v131.412c0,4.142,3.358,7.5,7.5,7.5   S67.967,325.848,67.967,321.706z"/>
	<path fill="white" d="M406.905,385.979l-113.828,65.718c-3.587,2.071-4.816,6.658-2.745,10.245c1.389,2.406,3.91,3.751,6.502,3.751   c1.272,0,2.563-0.324,3.743-1.006l113.828-65.718c3.587-2.071,4.816-6.658,2.745-10.245   C415.079,385.137,410.491,383.907,406.905,385.979z"/>
	<path fill="white" d="M444.014,190.294v131.412c0,4.142,3.357,7.5,7.5,7.5s7.5-3.358,7.5-7.5V190.294c0-4.142-3.357-7.5-7.5-7.5   S444.014,186.152,444.014,190.294z"/>
	<path fill="white" d="M218.904,451.697l-113.851-65.729c-3.587-2.072-8.174-0.842-10.245,2.745c-2.071,3.587-0.842,8.174,2.745,10.245   l113.851,65.729c1.181,0.682,2.471,1.006,3.743,1.006c2.592,0,5.113-1.346,6.502-3.751   C223.72,458.354,222.491,453.768,218.904,451.697z"/>
	<path fill="white" d="M101.333,127.027c1.272,0,2.562-0.324,3.743-1.006l113.828-65.718c3.587-2.071,4.816-6.658,2.745-10.245   c-2.072-3.587-6.658-4.816-10.245-2.745L97.576,113.031c-3.587,2.071-4.816,6.658-2.745,10.245   C96.22,125.682,98.741,127.027,101.333,127.027z"/>
	<path fill="white" d="M255.991,60.46c16.669,0,30.23-13.561,30.23-30.23S272.659,0,255.991,0s-30.23,13.562-30.23,30.23   S239.322,60.46,255.991,60.46z M255.991,15c8.398,0,15.23,6.833,15.23,15.23s-6.832,15.23-15.23,15.23   c-8.398,0-15.23-6.832-15.23-15.23S247.593,15,255.991,15z"/>
	<path fill="white" d="M75.583,116.935C61.149,108.6,42.623,113.564,34.288,128c-8.334,14.436-3.371,32.961,11.065,41.295   c4.749,2.742,9.938,4.044,15.064,4.044c10.455,0,20.638-5.422,26.231-15.109C94.983,143.794,90.019,125.27,75.583,116.935z    M73.658,150.73c-4.2,7.272-13.532,9.773-20.805,5.575c-7.272-4.199-9.773-13.532-5.575-20.805   c2.034-3.523,5.318-6.043,9.248-7.096s8.034-0.513,11.557,1.521C75.356,134.125,77.857,143.458,73.658,150.73z"/>
	<path fill="white" d="M45.353,342.705C30.917,351.039,25.953,369.564,34.288,384c5.593,9.688,15.775,15.109,26.231,15.109   c5.125,0,10.316-1.303,15.064-4.044c14.436-8.334,19.399-26.859,11.065-41.295C78.313,339.333,59.787,334.371,45.353,342.705z    M68.083,382.075c-3.523,2.034-7.629,2.574-11.557,1.521c-3.93-1.053-7.214-3.573-9.248-7.096   c-4.199-7.273-1.698-16.606,5.575-20.805c7.273-4.2,16.605-1.698,20.805,5.575C77.857,368.542,75.356,377.875,68.083,382.075z"/>
	<path fill="white" d="M255.991,451.54c-16.669,0-30.23,13.561-30.23,30.23S239.322,512,255.991,512s30.23-13.562,30.23-30.23   S272.659,451.54,255.991,451.54z M255.991,497c-8.398,0-15.23-6.833-15.23-15.23s6.833-15.23,15.23-15.23   c8.398,0,15.23,6.832,15.23,15.23S264.389,497,255.991,497z"/>
	<path fill="white" d="M466.628,342.705c-14.435-8.333-32.96-3.371-41.296,11.065c-8.334,14.436-3.37,32.961,11.065,41.295   c4.658,2.689,9.827,4.063,15.066,4.063c2.625,0,5.27-0.345,7.873-1.043c7.8-2.09,14.318-7.092,18.355-14.084   c4.038-6.993,5.11-15.14,3.021-22.94C478.623,353.261,473.621,346.742,466.628,342.705z M464.702,376.5L464.702,376.5   c-2.034,3.523-5.318,6.044-9.248,7.097c-3.929,1.053-8.034,0.513-11.557-1.521c-7.272-4.199-9.773-13.532-5.575-20.805   c2.818-4.881,7.948-7.612,13.216-7.612c2.582,0,5.197,0.656,7.59,2.037c3.522,2.034,6.043,5.318,7.096,9.248   S466.737,372.977,464.702,376.5z"/>
	<path fill="white" d="M451.564,173.339c5.125,0,10.316-1.303,15.064-4.044c6.993-4.038,11.995-10.557,14.085-18.356   c2.09-7.8,1.018-15.947-3.021-22.94v0c-4.037-6.993-10.556-11.995-18.355-14.085c-7.8-2.089-15.946-1.018-22.939,3.02   c-14.436,8.334-19.399,26.859-11.065,41.296C430.926,167.918,441.108,173.34,451.564,173.339z M443.898,129.925   c2.347-1.355,4.951-2.047,7.591-2.047c1.322,0,2.654,0.174,3.966,0.525c3.93,1.053,7.214,3.573,9.248,7.096v0   c2.034,3.522,2.574,7.627,1.521,11.557s-3.573,7.214-7.096,9.248c-7.271,4.199-16.604,1.698-20.806-5.574   C434.124,143.458,436.625,134.124,443.898,129.925z"/>
</g>















</svg>
